<svg width="25" height="24" viewBox="0 0 25 24" fill="none" xmlns="http://www.w3.org/2000/svg" stroke='currentColor'><path d="M21.5908 11.5C21.5943 12.8199 21.2859 14.1219 20.6908 15.3C19.9853 16.7117 18.9006 17.8992 17.5583 18.7293C16.216 19.5594 14.6691 19.9994 13.0908 20C11.771 20.0034 10.4689 19.6951 9.29082 19.1L3.59082 21L5.49082 15.3C4.89575 14.1219 4.58738 12.8199 4.59082 11.5C4.59143 9.92176 5.03143 8.37485 5.86154 7.03255C6.69165 5.69025 7.87907 4.60557 9.29082 3.9C10.4689 3.30493 11.771 2.99656 13.0908 3H13.5908C15.6752 3.11499 17.6439 3.99476 19.12 5.47086C20.5961 6.94695 21.4758 8.91565 21.5908 11V11.5Z" stroke-width="2" stroke-linecap="round" stroke-linejoin="round"/></svg>