<svg width="24" height="22" viewBox="0 0 24 22" fill="none" xmlns="http://www.w3.org/2000/svg">
<path d="M20.4308 3.60999C19.9201 3.099 19.3136 2.69364 18.6462 2.41708C17.9787 2.14052 17.2633 1.99817 16.5408 1.99817C15.8183 1.99817 15.1029 2.14052 14.4355 2.41708C13.768 2.69364 13.1616 3.099 12.6508 3.60999L11.5908 4.66999L10.5308 3.60999C9.49912 2.5783 8.09985 1.9987 6.64082 1.9987C5.18178 1.9987 3.78251 2.5783 2.75082 3.60999C1.71913 4.64169 1.13953 6.04096 1.13953 7.49999C1.13953 8.95903 1.71913 10.3583 2.75082 11.39L3.81082 12.45L11.5908 20.23L19.3708 12.45L20.4308 11.39C20.9418 10.8792 21.3472 10.2728 21.6237 9.60535C21.9003 8.93789 22.0426 8.22248 22.0426 7.49999C22.0426 6.77751 21.9003 6.0621 21.6237 5.39464C21.3472 4.72718 20.9418 4.12075 20.4308 3.60999V3.60999Z" stroke="#25282B" stroke-width="2" stroke-linecap="round" stroke-linejoin="round"/>
</svg>
