<svg width="25" height="24" viewBox="0 0 25 24" fill="none" xmlns="http://www.w3.org/2000/svg">
<path d="M18.5908 8C18.5908 6.4087 17.9587 4.88258 16.8335 3.75736C15.7082 2.63214 14.1821 2 12.5908 2C10.9995 2 9.4734 2.63214 8.34818 3.75736C7.22296 4.88258 6.59082 6.4087 6.59082 8C6.59082 15 3.59082 17 3.59082 17H21.5908C21.5908 17 18.5908 15 18.5908 8Z" stroke="#25282B" stroke-width="2" stroke-linecap="round" stroke-linejoin="round"/>
<path d="M14.3208 21C14.145 21.3031 13.8927 21.5547 13.5891 21.7295C13.2854 21.9044 12.9412 21.9965 12.5908 21.9965C12.2405 21.9965 11.8962 21.9044 11.5926 21.7295C11.289 21.5547 11.0367 21.3031 10.8608 21" stroke="#25282B" stroke-width="2" stroke-linecap="round" stroke-linejoin="round"/>
</svg>
