<svg width="25" height="24" viewBox="0 0 25 24" fill="none" xmlns="http://www.w3.org/2000/svg">
<g clip-path="url(#clip0_211_4923)">
<path d="M12.5908 15C14.2477 15 15.5908 13.6569 15.5908 12C15.5908 10.3431 14.2477 9 12.5908 9C10.934 9 9.59082 10.3431 9.59082 12C9.59082 13.6569 10.934 15 12.5908 15Z" stroke="#25282B" stroke-width="2" stroke-linecap="round" stroke-linejoin="round"/>
<path d="M19.9908 15C19.8577 15.3016 19.818 15.6362 19.8768 15.9606C19.9356 16.285 20.0903 16.5843 20.3208 16.82L20.3808 16.88C20.5668 17.0657 20.7143 17.2863 20.8149 17.5291C20.9156 17.7719 20.9674 18.0322 20.9674 18.295C20.9674 18.5578 20.9156 18.8181 20.8149 19.0609C20.7143 19.3037 20.5668 19.5243 20.3808 19.71C20.1951 19.896 19.9745 20.0435 19.7317 20.1441C19.4889 20.2448 19.2287 20.2966 18.9658 20.2966C18.703 20.2966 18.4427 20.2448 18.1999 20.1441C17.9571 20.0435 17.7366 19.896 17.5508 19.71L17.4908 19.65C17.2551 19.4195 16.9558 19.2648 16.6314 19.206C16.307 19.1472 15.9724 19.1869 15.6708 19.32C15.3751 19.4468 15.1228 19.6572 14.9451 19.9255C14.7675 20.1938 14.6721 20.5082 14.6708 20.83V21C14.6708 21.5304 14.4601 22.0391 14.085 22.4142C13.71 22.7893 13.2013 23 12.6708 23C12.1404 23 11.6317 22.7893 11.2566 22.4142C10.8815 22.0391 10.6708 21.5304 10.6708 21V20.91C10.6631 20.579 10.5559 20.258 10.3633 19.9887C10.1707 19.7194 9.90156 19.5143 9.59082 19.4C9.2892 19.2669 8.95463 19.2272 8.63023 19.286C8.30584 19.3448 8.0065 19.4995 7.77082 19.73L7.71082 19.79C7.52507 19.976 7.3045 20.1235 7.0617 20.2241C6.8189 20.3248 6.55865 20.3766 6.29582 20.3766C6.03299 20.3766 5.77274 20.3248 5.52994 20.2241C5.28714 20.1235 5.06657 19.976 4.88082 19.79C4.69487 19.6043 4.54735 19.3837 4.4467 19.1409C4.34605 18.8981 4.29425 18.6378 4.29425 18.375C4.29425 18.1122 4.34605 17.8519 4.4467 17.6091C4.54735 17.3663 4.69487 17.1457 4.88082 16.96L4.94082 16.9C5.17136 16.6643 5.32601 16.365 5.38482 16.0406C5.44364 15.7162 5.40394 15.3816 5.27082 15.08C5.14406 14.7842 4.93358 14.532 4.66529 14.3543C4.397 14.1766 4.08261 14.0813 3.76082 14.08H3.59082C3.06039 14.08 2.55168 13.8693 2.17661 13.4942C1.80153 13.1191 1.59082 12.6104 1.59082 12.08C1.59082 11.5496 1.80153 11.0409 2.17661 10.6658C2.55168 10.2907 3.06039 10.08 3.59082 10.08H3.68082C4.01181 10.0723 4.33283 9.96512 4.60212 9.77251C4.87141 9.5799 5.07654 9.31074 5.19082 9C5.32394 8.69838 5.36364 8.36381 5.30482 8.03941C5.24601 7.71502 5.09136 7.41568 4.86082 7.18L4.80082 7.12C4.61487 6.93425 4.46735 6.71368 4.3667 6.47088C4.26605 6.22808 4.21425 5.96783 4.21425 5.705C4.21425 5.44217 4.26605 5.18192 4.3667 4.93912C4.46735 4.69632 4.61487 4.47575 4.80082 4.29C4.98657 4.10405 5.20714 3.95653 5.44994 3.85588C5.69274 3.75523 5.95299 3.70343 6.21582 3.70343C6.47865 3.70343 6.7389 3.75523 6.9817 3.85588C7.2245 3.95653 7.44507 4.10405 7.63082 4.29L7.69082 4.35C7.9265 4.58054 8.22584 4.73519 8.55023 4.794C8.87463 4.85282 9.2092 4.81312 9.51082 4.68H9.59082C9.88659 4.55324 10.1388 4.34276 10.3165 4.07447C10.4942 3.80618 10.5895 3.49179 10.5908 3.17V3C10.5908 2.46957 10.8015 1.96086 11.1766 1.58579C11.5517 1.21071 12.0604 1 12.5908 1C13.1213 1 13.63 1.21071 14.005 1.58579C14.3801 1.96086 14.5908 2.46957 14.5908 3V3.09C14.5921 3.41179 14.6875 3.72618 14.8651 3.99447C15.0428 4.26276 15.2951 4.47324 15.5908 4.6C15.8924 4.73312 16.227 4.77282 16.5514 4.714C16.8758 4.65519 17.1751 4.50054 17.4108 4.27L17.4708 4.21C17.6566 4.02405 17.8771 3.87653 18.1199 3.77588C18.3627 3.67523 18.623 3.62343 18.8858 3.62343C19.1487 3.62343 19.4089 3.67523 19.6517 3.77588C19.8945 3.87653 20.1151 4.02405 20.3008 4.21C20.4868 4.39575 20.6343 4.61632 20.7349 4.85912C20.8356 5.10192 20.8874 5.36217 20.8874 5.625C20.8874 5.88783 20.8356 6.14808 20.7349 6.39088C20.6343 6.63368 20.4868 6.85425 20.3008 7.04L20.2408 7.1C20.0103 7.33568 19.8556 7.63502 19.7968 7.95941C19.738 8.28381 19.7777 8.61838 19.9108 8.92V9C20.0376 9.29577 20.2481 9.54802 20.5164 9.72569C20.7846 9.90337 21.099 9.99872 21.4208 10H21.5908C22.1213 10 22.63 10.2107 23.005 10.5858C23.3801 10.9609 23.5908 11.4696 23.5908 12C23.5908 12.5304 23.3801 13.0391 23.005 13.4142C22.63 13.7893 22.1213 14 21.5908 14H21.5008C21.179 14.0013 20.8646 14.0966 20.5964 14.2743C20.3281 14.452 20.1176 14.7042 19.9908 15V15Z" stroke="#25282B" stroke-width="2" stroke-linecap="round" stroke-linejoin="round"/>
</g>
<defs>
<clipPath id="clip0_211_4923">
<rect width="24" height="24" fill="white" transform="translate(0.59082)"/>
</clipPath>
</defs>
</svg>
