<svg width="25" height="24" viewBox="0 0 25 24" fill="none" xmlns="http://www.w3.org/2000/svg">
<path d="M22.5909 16.92V19.92C22.592 20.1985 22.535 20.4742 22.4234 20.7294C22.3118 20.9845 22.1482 21.2136 21.943 21.4019C21.7377 21.5901 21.4954 21.7335 21.2316 21.8227C20.9678 21.9119 20.6882 21.9451 20.4109 21.92C17.3337 21.5856 14.3779 20.5342 11.7809 18.85C9.3647 17.3147 7.31621 15.2662 5.78088 12.85C4.09085 10.2412 3.03912 7.271 2.71088 4.18001C2.68589 3.90347 2.71875 3.62477 2.80738 3.36163C2.896 3.09849 3.03845 2.85669 3.22564 2.65163C3.41284 2.44656 3.64068 2.28271 3.89467 2.17053C4.14865 2.05834 4.42322 2.00027 4.70088 2.00001H7.70088C8.18618 1.99523 8.65667 2.16708 9.02464 2.48354C9.39261 2.79999 9.63295 3.23945 9.70088 3.72001C9.8275 4.68007 10.0623 5.62273 10.4009 6.53001C10.5354 6.88793 10.5645 7.27692 10.4848 7.65089C10.405 8.02485 10.2197 8.36812 9.95088 8.64001L8.68088 9.91001C10.1044 12.4136 12.1773 14.4865 14.6809 15.91L15.9509 14.64C16.2228 14.3711 16.566 14.1859 16.94 14.1061C17.314 14.0263 17.703 14.0555 18.0609 14.19C18.9681 14.5286 19.9108 14.7634 20.8709 14.89C21.3566 14.9585 21.8003 15.2032 22.1174 15.5775C22.4345 15.9518 22.603 16.4296 22.5909 16.92Z" stroke="#25282B" stroke-width="2" stroke-linecap="round" stroke-linejoin="round"/>
</svg>
