<svg width="25" height="24" viewBox="0 0 25 24" fill="none" xmlns="http://www.w3.org/2000/svg">
<path d="M21.5908 10C21.5908 17 12.5908 23 12.5908 23C12.5908 23 3.59082 17 3.59082 10C3.59082 7.61305 4.53903 5.32387 6.22686 3.63604C7.91469 1.94821 10.2039 1 12.5908 1C14.9778 1 17.267 1.94821 18.9548 3.63604C20.6426 5.32387 21.5908 7.61305 21.5908 10Z" stroke="#25282B" stroke-width="2" stroke-linecap="round" stroke-linejoin="round"/>
<path d="M12.5908 13C14.2477 13 15.5908 11.6569 15.5908 10C15.5908 8.34315 14.2477 7 12.5908 7C10.934 7 9.59082 8.34315 9.59082 10C9.59082 11.6569 10.934 13 12.5908 13Z" stroke="#25282B" stroke-width="2" stroke-linecap="round" stroke-linejoin="round"/>
</svg>
