<?xml version="1.0" encoding="utf-8"?><svg xmlns="http://www.w3.org/2000/svg" xmlns:xlink="http://www.w3.org/1999/xlink"><symbol fill="none" stroke="currentColor" viewBox="0 0 25 24" id="icon-action-circle-pause" xmlns="http://www.w3.org/2000/svg"><path d="M12.59 22c5.524 0 10-4.477 10-10s-4.476-10-10-10c-5.522 0-10 4.477-10 10s4.478 10 10 10zM10.59 15V9M14.59 15V9" stroke-width="2" stroke-linecap="round" stroke-linejoin="round"/></symbol><symbol fill="none" stroke="currentColor" viewBox="0 0 25 24" id="icon-action-circle-play" xmlns="http://www.w3.org/2000/svg"><path d="M12.59 22c5.524 0 10-4.477 10-10s-4.476-10-10-10c-5.522 0-10 4.477-10 10s4.478 10 10 10z" stroke-width="2" stroke-linecap="round" stroke-linejoin="round"/><path d="M10.59 8l6 4-6 4V8z" stroke-width="2" stroke-linecap="round" stroke-linejoin="round"/></symbol><symbol fill="none" stroke="currentColor" viewBox="0 0 25 24" id="icon-action-circle-stop" xmlns="http://www.w3.org/2000/svg"><path d="M12.59 22c5.524 0 10-4.477 10-10s-4.476-10-10-10c-5.522 0-10 4.477-10 10s4.478 10 10 10z" stroke-width="2" stroke-linecap="round" stroke-linejoin="round"/><path d="M15.59 9h-6v6h6V9z" stroke-width="2" stroke-linecap="round" stroke-linejoin="round"/></symbol><symbol fill="none" stroke="currentColor" viewBox="0 0 25 24" id="icon-action-star" xmlns="http://www.w3.org/2000/svg"><path d="M12.59 2l3.09 6.26 6.91 1.01-5 4.87 1.18 6.88-6.18-3.25-6.18 3.25 1.18-6.88-5-4.87L9.5 8.26 12.59 2z" stroke-width="2" stroke-linecap="round" stroke-linejoin="round"/></symbol><symbol fill="none" stroke="currentColor" viewBox="0 0 13 13" id="icon-action-star-filled" xmlns="http://www.w3.org/2000/svg"><g clip-path="url(#aeclip0_12548_4400)"><path d="M12.266 4.596l-3.54-.514L7.143.876a.52.52 0 00-.897 0L4.662 4.082l-3.54.514a.5.5 0 00-.278.853l2.562 2.497-.604 3.526a.5.5 0 00.725.527l3.167-1.665L9.86 12a.5.5 0 00.726-.527L9.98 7.946l2.563-2.497a.5.5 0 00-.277-.853h-.001z" fill="#31465E"/></g><defs><clipPath id="aeclip0_12548_4400"><path fill="#fff" transform="translate(.694 .326)" d="M0 0h12v12H0z"/></clipPath></defs></symbol><symbol fill="none" stroke="currentColor" viewBox="0 0 17 20" id="icon-book-bookmark" xmlns="http://www.w3.org/2000/svg"><path d="M15.59 19l-7-5-7 5V3a2 2 0 012-2h10a2 2 0 012 2v16z" stroke-width="2" stroke-linecap="round" stroke-linejoin="round"/></symbol><symbol fill="none" stroke="currentColor" viewBox="0 0 25 24" id="icon-bookmark" xmlns="http://www.w3.org/2000/svg"><path d="M19.59 21l-7-5-7 5V5a2 2 0 012-2h10a2 2 0 012 2v16z" stroke-width="2" stroke-linecap="round" stroke-linejoin="round"/></symbol><symbol fill="none" stroke="currentColor" viewBox="0 0 25 24" id="icon-card-globe" xmlns="http://www.w3.org/2000/svg"><path d="M12.59 22c5.524 0 10-4.477 10-10s-4.476-10-10-10c-5.522 0-10 4.477-10 10s4.478 10 10 10zM2.59 12h20" stroke-width="2" stroke-linecap="round" stroke-linejoin="round"/><path d="M12.59 2a15.3 15.3 0 014 10 15.3 15.3 0 01-4 10 15.3 15.3 0 01-4-10 15.3 15.3 0 014-10v0z" stroke-width="2" stroke-linecap="round" stroke-linejoin="round"/></symbol><symbol fill="none" stroke="currentColor" viewBox="0 0 25 24" id="icon-card-map-pin" xmlns="http://www.w3.org/2000/svg"><path d="M21.59 10c0 7-9 13-9 13s-9-6-9-13a9 9 0 1118 0z" stroke-width="2" stroke-linecap="round" stroke-linejoin="round"/><path d="M12.59 13a3 3 0 100-6 3 3 0 000 6z" stroke-width="2" stroke-linecap="round" stroke-linejoin="round"/></symbol><symbol fill="none" stroke="currentColor" viewBox="0 0 12 13" id="icon-check-in-person" xmlns="http://www.w3.org/2000/svg"><path d="M6.31 6.777a2.98 2.98 0 002.978-2.978v-.496A2.98 2.98 0 006.31.326a2.98 2.98 0 00-2.977 2.977v.496A2.98 2.98 0 006.31 6.777zM9.943 8.256a13.854 13.854 0 00-7.267 0A2.493 2.493 0 00.85 10.65v1.586h10.917V10.65c0-1.112-.75-2.096-1.825-2.394z" fill="#FADB5E"/></symbol><symbol fill="none" stroke="currentColor" viewBox="0 0 15 8" id="icon-chevron-singledown" xmlns="http://www.w3.org/2000/svg"><path d="M1.59 1l6 6 6-6" stroke-width="2" stroke-linecap="round" stroke-linejoin="round"/></symbol><symbol fill="none" stroke="currentColor" viewBox="0 0 24 22" id="icon-heart" xmlns="http://www.w3.org/2000/svg"><path d="M20.43 3.61a5.5 5.5 0 00-7.78 0l-1.06 1.06-1.06-1.06a5.501 5.501 0 10-7.78 7.78l1.06 1.06 7.78 7.78 7.78-7.78 1.06-1.06a5.5 5.5 0 000-7.78v0z" stroke-width="2" stroke-linecap="round" stroke-linejoin="round"/></symbol><symbol fill="none" stroke="currentColor" viewBox="0 0 25 24" id="icon-left-arrow" xmlns="http://www.w3.org/2000/svg"><path d="M15.59 18l-6-6 6-6" stroke-width="2" stroke-linecap="round" stroke-linejoin="round"/></symbol><symbol fill="none" stroke="currentColor" viewBox="0 0 25 24" id="icon-location-bookmark" xmlns="http://www.w3.org/2000/svg"><path d="M19.59 21l-7-5-7 5V5a2 2 0 012-2h10a2 2 0 012 2v16z" stroke-width="2" stroke-linecap="round" stroke-linejoin="round"/></symbol><symbol fill="none" stroke="currentColor" viewBox="0 0 25 24" id="icon-location-compass" xmlns="http://www.w3.org/2000/svg"><path d="M12.59 22c5.524 0 10-4.477 10-10s-4.476-10-10-10c-5.522 0-10 4.477-10 10s4.478 10 10 10z" stroke-width="2" stroke-linecap="round" stroke-linejoin="round"/><path d="M16.83 7.76l-2.12 6.36-6.36 2.12 2.12-6.36 6.36-2.12z" stroke-width="2" stroke-linecap="round" stroke-linejoin="round"/></symbol><symbol fill="none" stroke="currentColor" viewBox="0 0 25 24" id="icon-location-globe" xmlns="http://www.w3.org/2000/svg"><path d="M12.59 22c5.524 0 10-4.477 10-10s-4.476-10-10-10c-5.522 0-10 4.477-10 10s4.478 10 10 10zM2.59 12h20" stroke-width="2" stroke-linecap="round" stroke-linejoin="round"/><path d="M12.59 2a15.3 15.3 0 014 10 15.3 15.3 0 01-4 10 15.3 15.3 0 01-4-10 15.3 15.3 0 014-10v0z" stroke-width="2" stroke-linecap="round" stroke-linejoin="round"/></symbol><symbol fill="none" stroke="currentColor" viewBox="0 0 25 24" id="icon-location-home" xmlns="http://www.w3.org/2000/svg"><path d="M3.59 9l9-7 9 7v11a2 2 0 01-2 2h-14a2 2 0 01-2-2V9z" stroke-width="2" stroke-linecap="round" stroke-linejoin="round"/><path d="M9.59 22V12h6v10" stroke-width="2" stroke-linecap="round" stroke-linejoin="round"/></symbol><symbol fill="none" stroke="currentColor" viewBox="0 0 25 24" id="icon-location-map-pin" xmlns="http://www.w3.org/2000/svg"><path d="M21.59 10c0 7-9 13-9 13s-9-6-9-13a9 9 0 1118 0z" stroke-width="2" stroke-linecap="round" stroke-linejoin="round"/><path d="M12.59 13a3 3 0 100-6 3 3 0 000 6z" stroke-width="2" stroke-linecap="round" stroke-linejoin="round"/></symbol><symbol fill="none" stroke="currentColor" viewBox="0 0 25 24" id="icon-log-out" xmlns="http://www.w3.org/2000/svg"><path d="M9.59 21h-4a2 2 0 01-2-2V5a2 2 0 012-2h4M16.59 17l5-5-5-5M21.59 12h-12" stroke-width="2" stroke-linecap="round" stroke-linejoin="round"/></symbol><symbol fill="none" stroke="currentColor" viewBox="0 0 25 24" id="icon-main-clock" xmlns="http://www.w3.org/2000/svg"><path d="M12.59 22c5.524 0 10-4.477 10-10s-4.476-10-10-10c-5.522 0-10 4.477-10 10s4.478 10 10 10z" stroke-width="2" stroke-linecap="round" stroke-linejoin="round"/><path d="M12.59 6v6l4 2" stroke-width="2" stroke-linecap="round" stroke-linejoin="round"/></symbol><symbol fill="none" stroke="currentColor" viewBox="0 0 25 24" id="icon-main-settings" xmlns="http://www.w3.org/2000/svg"><g clip-path="url(#auclip0_211_4923)" stroke-width="2" stroke-linecap="round" stroke-linejoin="round"><path d="M12.59 15a3 3 0 100-6 3 3 0 000 6z"/><path d="M19.99 15a1.65 1.65 0 00.33 1.82l.06.06a1.998 1.998 0 010 2.83 1.998 1.998 0 01-2.83 0l-.06-.06a1.65 1.65 0 00-1.82-.33 1.65 1.65 0 00-1 1.51V21a2 2 0 01-4 0v-.09a1.65 1.65 0 00-1.08-1.51 1.65 1.65 0 00-1.82.33l-.06.06a1.998 1.998 0 01-2.83 0 2 2 0 010-2.83l.06-.06a1.65 1.65 0 00.33-1.82 1.65 1.65 0 00-1.51-1h-.17a2 2 0 110-4h.09A1.65 1.65 0 005.19 9a1.65 1.65 0 00-.33-1.82l-.06-.06a2 2 0 112.83-2.83l.06.06a1.65 1.65 0 001.82.33h.08a1.65 1.65 0 001-1.51V3a2 2 0 114 0v.09a1.65 1.65 0 001 1.51 1.65 1.65 0 001.82-.33l.06-.06a2 2 0 112.83 2.83l-.06.06a1.65 1.65 0 00-.33 1.82V9a1.65 1.65 0 001.51 1h.17a2 2 0 110 4h-.09a1.65 1.65 0 00-1.51 1v0z"/></g><defs><clipPath id="auclip0_211_4923"><path fill="#fff" transform="translate(.59)" d="M0 0h24v24H0z"/></clipPath></defs></symbol><symbol fill="none" stroke="currentColor" viewBox="0 0 25 24" id="icon-map-pin" xmlns="http://www.w3.org/2000/svg"><path d="M21.59 10c0 7-9 13-9 13s-9-6-9-13a9 9 0 1118 0z" stroke-width="2" stroke-linecap="round" stroke-linejoin="round"/><path d="M12.59 13a3 3 0 100-6 3 3 0 000 6z" stroke-width="2" stroke-linecap="round" stroke-linejoin="round"/></symbol><symbol fill="none" stroke="currentColor" viewBox="0 0 25 24" id="icon-message-box-circle" xmlns="http://www.w3.org/2000/svg"><path d="M21.59 11.5a8.379 8.379 0 01-.9 3.8 8.5 8.5 0 01-7.6 4.7 8.38 8.38 0 01-3.8-.9L3.59 21l1.9-5.7a8.38 8.38 0 01-.9-3.8 8.5 8.5 0 014.7-7.6 8.38 8.38 0 013.8-.9h.5a8.48 8.48 0 018 8v.5z" stroke-width="2" stroke-linecap="round" stroke-linejoin="round"/></symbol><symbol fill="none" stroke="currentColor" viewBox="0 0 25 24" id="icon-notification" xmlns="http://www.w3.org/2000/svg"><path d="M18.59 8a6 6 0 10-12 0c0 7-3 9-3 9h18s-3-2-3-9zM14.32 21a1.999 1.999 0 01-3.46 0" stroke-width="2" stroke-linecap="round" stroke-linejoin="round"/></symbol><symbol fill="none" stroke="currentColor" viewBox="0 0 25 24" id="icon-notification-bell" xmlns="http://www.w3.org/2000/svg"><path d="M18.59 8a6 6 0 10-12 0c0 7-3 9-3 9h18s-3-2-3-9zM14.32 21a1.999 1.999 0 01-3.46 0" stroke-width="2" stroke-linecap="round" stroke-linejoin="round"/></symbol><symbol fill="none" stroke="currentColor" viewBox="0 0 24 25" id="icon-other-gift" xmlns="http://www.w3.org/2000/svg"><path d="M19.55 12.76v10H3.91v-10" fill="#FADB5E"/><path d="M19.55 12.76v10H3.91v-10" stroke-width="2" stroke-linecap="round" stroke-linejoin="round"/><path d="M21.506 7.76H1.956v5h19.55v-5z" fill="#FF6E75" stroke-width="2" stroke-linecap="round" stroke-linejoin="round"/><path d="M11.73 22.76v-15M11.73 7.76H7.331c-.648 0-1.27-.263-1.728-.732a2.53 2.53 0 01-.715-1.767c0-.663.257-1.3.715-1.768a2.416 2.416 0 011.728-.732c3.422 0 4.4 5 4.4 5z" stroke-width="2" stroke-linecap="round" stroke-linejoin="round"/><path d="M11.73 7.76h4.4c.647 0 1.269-.263 1.727-.732a2.53 2.53 0 00.716-1.767 2.53 2.53 0 00-.716-1.768 2.416 2.416 0 00-1.728-.732c-3.421 0-4.399 5-4.399 5z" stroke-width="2" stroke-linecap="round" stroke-linejoin="round"/></symbol><symbol fill="none" stroke="currentColor" viewBox="0 0 25 24" id="icon-other-phone" xmlns="http://www.w3.org/2000/svg"><path d="M22.59 16.92v3a2 2 0 01-2.18 2 19.79 19.79 0 01-8.63-3.07 19.499 19.499 0 01-6-6 19.79 19.79 0 01-3.07-8.67A2 2 0 014.7 2h3a2 2 0 012 1.72c.128.96.362 1.903.7 2.81a2 2 0 01-.45 2.11L8.68 9.91a15.999 15.999 0 006 6l1.27-1.27a2 2 0 012.11-.45c.908.339 1.85.573 2.81.7a2 2 0 011.72 2.03z" stroke-width="2" stroke-linecap="round" stroke-linejoin="round"/></symbol><symbol fill="none" stroke="currentColor" viewBox="0 0 25 24" id="icon-right-arrow" xmlns="http://www.w3.org/2000/svg"><path d="M9.59 18l6-6-6-6" stroke-width="2" stroke-linecap="round" stroke-linejoin="round"/></symbol><symbol fill="none" stroke="currentColor" viewBox="0 0 16 16" id="icon-search" xmlns="http://www.w3.org/2000/svg"><path d="M7.333 12.667A5.333 5.333 0 107.333 2a5.333 5.333 0 000 10.667zM14 14l-2.9-2.9" stroke-width="2" stroke-linecap="round" stroke-linejoin="round"/></symbol><symbol fill="none" stroke="currentColor" viewBox="0 0 18 16" id="icon-search-light" xmlns="http://www.w3.org/2000/svg"><path d="M8.772 12.667c3.132 0 5.67-2.388 5.67-5.334C14.443 4.388 11.905 2 8.773 2s-5.67 2.388-5.67 5.333c0 2.946 2.538 5.334 5.67 5.334zM15.86 14l-3.083-2.9" stroke-width="2" stroke-linecap="round" stroke-linejoin="round"/></symbol><symbol fill="none" stroke="currentColor" viewBox="0 0 25 24" id="icon-slider-direction-right" xmlns="http://www.w3.org/2000/svg"><path d="M9.59 18l6-6-6-6" stroke-width="2" stroke-linecap="round" stroke-linejoin="round"/></symbol><symbol fill="none" stroke="currentColor" viewBox="0 0 25 24" id="icon-symbol-x" xmlns="http://www.w3.org/2000/svg"><path d="M18.59 6l-12 12M6.59 6l12 12" stroke-width="2" stroke-linecap="round" stroke-linejoin="round"/></symbol><symbol fill="none" stroke="currentColor" viewBox="0 0 14 17" id="icon-weather-droplet" xmlns="http://www.w3.org/2000/svg"><path d="M6.942 1.922l4.083 3.84a5.337 5.337 0 011.581 2.78 5.128 5.128 0 01-.328 3.136 5.515 5.515 0 01-2.126 2.437 6.034 6.034 0 01-3.206.915 6.034 6.034 0 01-3.207-.915 5.514 5.514 0 01-2.126-2.437 5.128 5.128 0 01-.328-3.136 5.336 5.336 0 011.581-2.78l4.076-3.84z" stroke-opacity=".3" stroke-width="2" stroke-linecap="round" stroke-linejoin="round"/></symbol><symbol fill="none" stroke="currentColor" viewBox="0 0 20 17" id="icon-weather-wind" xmlns="http://www.w3.org/2000/svg"><path d="M7.743 2.406c.202-.192.452-.333.726-.412.275-.08.566-.093.847-.04.282.052.546.169.768.34.222.171.395.391.505.64a1.55 1.55 0 01-.164 1.54 1.71 1.71 0 01-.63.535 1.832 1.832 0 01-.824.19H1.13m9.226 9.35c.203.192.452.333.727.412.274.079.566.093.847.04.282-.052.545-.169.767-.34a1.65 1.65 0 00.506-.641 1.55 1.55 0 00-.164-1.54 1.709 1.709 0 00-.63-.534 1.832 1.832 0 00-.824-.191H1.13m13.705-6.776a2.21 2.21 0 01.907-.511A2.311 2.311 0 0116.8 4.42c.351.066.68.212.956.426.277.213.493.487.63.798a1.938 1.938 0 01-.2 1.921c-.198.28-.467.51-.782.67-.316.158-.668.242-1.026.242H1.13" stroke-opacity=".3" stroke-width="2" stroke-linecap="round" stroke-linejoin="round"/></symbol></svg>